<?xml version="1.0" encoding="UTF-8"?>
<svg id="Layer_1" data-name="Layer 1" xmlns="http://www.w3.org/2000/svg" viewBox="0 0 144 144">
  <defs>
    <style>
      .cls-1 {
        fill: #fff;
      }

      .cls-2 {
        fill: #395aa8;
      }
    </style>
  </defs>
  <circle class="cls-2" cx="72" cy="72" r="72"/>
  <path class="cls-1" d="M32.31,83.14v-49.64c0-.58.47-1.05,1.05-1.05h5.18c.58,0,1.05.47,1.05,1.05v17.34s.14,0,.14,0c3.15-4.26,8.04-6.43,13.28-6.43,10.98,0,20.06,9.23,20.06,20.41,0,10.84-8.53,20.34-19.43,20.34-5.59,0-10.77-2.24-13.98-6.57h-.14s0,4.55,0,4.55c0,.58-.47,1.05-1.05,1.05h-5.11c-.58,0-1.05-.47-1.05-1.05ZM65.79,64.82c0-7.34-5.8-13.77-13.28-13.77-7.2,0-13.14,6.29-13.14,13.63,0,7.69,5.8,13.84,13.21,13.84,7.13,0,13.21-6.15,13.21-13.7Z"/>
  <path class="cls-1" d="M107.11,84.19c-.58,0-1.05-.47-1.05-1.05v-4.48h-.14c-3.01,4.19-8.04,6.5-13.7,6.5-11.26,0-20.13-8.53-20.13-19.92,0-11.81,8.39-20.83,19.92-20.83,5.24,0,10.21,1.89,13.35,5.8h.14v-16.71c0-.58.47-1.05,1.05-1.05h5.18c.58,0,1.05.47,1.05,1.05v49.64c0,.58-.47,1.05-1.05,1.05h-4.62ZM92.57,51.05c-8.88,0-15.45,8.94-12.49,18.51,1.08,3.48,3.61,6.4,6.97,7.82,9.49,4.01,19.02-3.07,19.02-12.21,0-7.9-5.31-14.12-13.49-14.12Z"/>
  <path class="cls-1" d="M72,115.42c-13.07,0-25.41-5.05-34.73-14.21-1.28-1.25-2.5-2.59-3.62-3.97-1.35-1.66-1.11-4.1.55-5.45,1.66-1.35,4.1-1.1,5.45.55.95,1.16,1.98,2.29,3.05,3.35,7.86,7.73,18.27,11.99,29.3,11.99s21.23-4.18,29.07-11.77c1.52-1.47,2.94-3.07,4.22-4.76,1.3-1.7,3.73-2.03,5.43-.74,1.7,1.3,2.03,3.73.74,5.43-1.52,1.99-3.2,3.89-5,5.63-9.29,8.99-21.53,13.95-34.46,13.95Z"/>
</svg>