<?xml version="1.0" encoding="UTF-8"?>
<svg id="Layer_1" data-name="Layer 1" xmlns="http://www.w3.org/2000/svg" viewBox="0 0 144 144">
  <defs>
    <style>
      .cls-1 {
        fill: #395aa8;
      }
    </style>
  </defs>
  <circle class="cls-1" cx="35.59" cy="43.79" r="6.34"/>
  <path class="cls-1" d="M139.93,52.06h-66.26v25.94c0,1.5-.63,3.04-5.27,3.04-.9,0-1.75,0-2.54.01-4.52.03-7.5.05-8.64-1.08-.42-.42-.62-1.02-.62-1.91v-2.03c0-1.11.23-2.11,2.95-2.11h8.52c1.12,0,2.03-.82,2.03-1.83v-4.01c0-1.01-.91-1.83-2.03-1.83h-8.25c-2.6,0-2.81-.89-2.81-2.05v-2.96c0-1.4.4-2.11,2.6-2.11h7.77c1.12,0,2.03-.82,2.03-1.83v-3.43c0-1.01-.91-1.83-2.03-1.83h-19.08c-3.08,0-6.18.32-9.26.96-.78.16-1.37.3-1.84.4q-1.65.38-3.43,0c-.44-.09-.98-.21-1.66-.34l-.71-.14c-2.9-.58-5.87-.87-8.83-.87H4.07c-1.14,0-2.07.83-2.07,1.86v3.36c0,1.03.93,1.86,2.07,1.86h23.11c2.44,0,3.65,1.43,3.65,3.78l-.02,4.07s.16-4.34-4.76-4.71c-8.89,0-12.73.12-12.68,6.62v9.97c0,6.81,3.79,9.71,12.68,9.71,1.89,0,3.54-.23,4.93-.68v2.18c0,1.03.93,1.86,2.07,1.86h4.84c1.14,0,2.07-.83,2.07-1.86v-27.15c0-2.09,1.7-3.79,3.79-3.79h12.55s-8.69,0-8.69,4.51v.79c0,2.51.72,4.29,2.24,5.49-1.78,1.11-2.65,3.05-2.65,5.87v3.07c0,2.72.79,4.89,2.35,6.43,3.38,3.35,9.81,3.29,15.48,3.24.7,0,1.39-.01,2.07-.01,2.69,0,4.89-.39,6.56-1.16v2.72c0,1.03.93,1.86,2.07,1.86h5.32c1.14,0,2.07-.83,2.07-1.86v-30.95h33.78v3.18h-15.43c-7.71,0-11.45,3.08-11.45,9.42v7.59c0,6.34,3.75,9.42,11.45,9.42s11.39-3.08,11.39-9.42v-7.59c0-.69-.07-1.27-.22-1.76h4.27v20.11c0,1.03.93,1.86,2.07,1.86h5.25c1.14,0,2.07-.83,2.07-1.86v-30.95h13.61c1.14,0,2.07-.83,2.07-1.86v-3.36c0-1.03-.93-1.86-2.07-1.86ZM26.67,81.56c-3.98,0-4.31-1.47-4.31-2.98v-3.67l7.93,5.72c-.66.62-1.86.93-3.62.93ZM30.98,74.78l-7.89-5.65c.69-.56,1.89-.84,3.58-.84,3.98,0,4.31,1.47,4.31,2.98v3.5ZM103.95,79.27c0,1.2-.18,2.05-2.47,2.05s-2.47-.85-2.47-2.05v-7.3c0-1.17.18-1.99,2.47-1.99s2.47.83,2.47,1.99v7.3Z"/>
</svg>