<?xml version="1.0" encoding="UTF-8"?>
<svg id="Layer_1" data-name="Layer 1" xmlns="http://www.w3.org/2000/svg" viewBox="0 0 144 144">
  <defs>
    <style>
      .cls-1 {
        fill: #3a5ba8;
      }

      .cls-2 {
        fill: #fff;
      }

      .cls-3 {
        fill: #395aa8;
      }
    </style>
  </defs>
  <g>
    <circle class="cls-3" cx="45.98" cy="103.06" r="4.53"/>
    <path class="cls-3" d="M120.55,108.97h-47.35v18.54c0,1.07-.45,2.17-3.76,2.17-.64,0-1.25,0-1.82,0-3.23.02-5.36.04-6.18-.77-.3-.3-.44-.73-.44-1.37v-1.45c0-.79.16-1.51,2.11-1.51h6.09c.8,0,1.45-.59,1.45-1.31v-2.86c0-.72-.65-1.31-1.45-1.31h-5.89c-1.86,0-2.01-.64-2.01-1.47v-2.11c0-1,.29-1.51,1.86-1.51h5.55c.8,0,1.45-.59,1.45-1.31v-2.45c0-.72-.65-1.31-1.45-1.31h-13.64c-2.2,0-4.42.23-6.62.69-.56.12-.98.21-1.31.29q-1.18.27-2.45,0c-.31-.07-.7-.15-1.19-.25l-.51-.1c-2.07-.41-4.2-.62-6.31-.62h-13.22c-.82,0-1.48.6-1.48,1.33v2.4c0,.73.66,1.33,1.48,1.33h16.52c1.75,0,2.61,1.02,2.61,2.7l-.02,2.91s.12-3.1-3.4-3.36c-6.35,0-9.1.09-9.06,4.73v7.13c0,4.87,2.71,6.94,9.06,6.94,1.35,0,2.53-.16,3.52-.49v1.56c0,.73.66,1.33,1.48,1.33h3.46c.82,0,1.48-.6,1.48-1.33v-19.41c0-1.49,1.22-2.71,2.71-2.71h8.97s-6.21,0-6.21,3.22v.56c0,1.79.51,3.06,1.6,3.92-1.27.79-1.9,2.18-1.9,4.2v2.19c0,1.95.56,3.49,1.68,4.6,2.42,2.39,7.01,2.35,11.06,2.31.5,0,1,0,1.48,0,1.92,0,3.5-.28,4.69-.83v1.94c0,.73.66,1.33,1.48,1.33h3.8c.82,0,1.48-.6,1.48-1.33v-22.12h24.14v2.27h-11.03c-5.51,0-8.19,2.2-8.19,6.73v5.43c0,4.53,2.68,6.73,8.19,6.73s8.14-2.2,8.14-6.73v-5.43c0-.49-.05-.9-.16-1.26h3.05v14.37c0,.73.66,1.33,1.48,1.33h3.76c.82,0,1.48-.6,1.48-1.33v-22.12h9.73c.82,0,1.48-.6,1.48-1.33v-2.4c0-.73-.66-1.33-1.48-1.33ZM39.6,130.05c-2.84,0-3.08-1.05-3.08-2.13v-2.62l5.67,4.09c-.47.45-1.33.66-2.59.66ZM42.68,125.21l-5.64-4.04c.49-.4,1.35-.6,2.56-.6,2.84,0,3.08,1.05,3.08,2.13v2.5ZM94.83,128.42c0,.86-.13,1.47-1.76,1.47s-1.76-.61-1.76-1.47v-5.22c0-.83.13-1.43,1.76-1.43s1.76.59,1.76,1.43v5.22Z"/>
  </g>
  <g>
    <circle class="cls-1" cx="72" cy="51.39" r="44.87"/>
    <path class="cls-2" d="M47.26,58.33v-30.93c0-.36.29-.65.65-.65h3.23c.36,0,.65.29.65.65v10.81s.09,0,.09,0c1.96-2.66,5.01-4.01,8.28-4.01,6.84,0,12.5,5.75,12.5,12.72,0,6.75-5.32,12.68-12.11,12.68-3.49,0-6.71-1.39-8.71-4.1h-.09s0,2.83,0,2.83c0,.36-.29.65-.65.65h-3.18c-.36,0-.65-.29-.65-.65ZM68.13,46.92c0-4.57-3.62-8.58-8.28-8.58-4.49,0-8.19,3.92-8.19,8.5,0,4.79,3.62,8.63,8.23,8.63,4.44,0,8.23-3.83,8.23-8.54Z"/>
    <path class="cls-2" d="M93.88,58.99c-.36,0-.65-.29-.65-.65v-2.79h-.09c-1.87,2.61-5.01,4.05-8.54,4.05-7.01,0-12.55-5.32-12.55-12.42,0-7.36,5.23-12.98,12.42-12.98,3.27,0,6.36,1.18,8.32,3.62h.09v-10.41c0-.36.29-.65.65-.65h3.23c.36,0,.65.29.65.65v30.93c0,.36-.29.65-.65.65h-2.88ZM84.82,38.34c-5.54,0-9.63,5.57-7.79,11.54.67,2.17,2.25,3.99,4.34,4.87,5.91,2.5,11.85-1.91,11.85-7.61,0-4.92-3.31-8.8-8.41-8.8Z"/>
    <path class="cls-2" d="M72,78.45c-8.15,0-15.83-3.14-21.64-8.86-.8-.78-1.56-1.61-2.26-2.47-.84-1.03-.69-2.55.34-3.4,1.03-.84,2.55-.69,3.4.34.59.72,1.23,1.42,1.9,2.08,4.9,4.82,11.39,7.47,18.26,7.47s13.23-2.6,18.11-7.33c.95-.92,1.83-1.91,2.63-2.96.81-1.06,2.32-1.26,3.38-.46,1.06.81,1.27,2.32.46,3.38-.95,1.24-1.99,2.42-3.11,3.51-5.79,5.61-13.42,8.69-21.47,8.69Z"/>
  </g>
</svg>